<?xml version="1.0" encoding="UTF-8"?>
<!DOCTYPE svg PUBLIC "-//W3C//DTD SVG 1.0//EN" "http://www.w3.org/TR/2001/REC-SVG-20010904/DTD/svg10.dtd">
<!-- Creator: CorelDRAW X8 -->
<svg xmlns="http://www.w3.org/2000/svg" xml:space="preserve" width="100%" height="100%" version="1.0" style="shape-rendering:geometricPrecision; text-rendering:geometricPrecision; image-rendering:optimizeQuality; fill-rule:evenodd; clip-rule:evenodd"
viewBox="0 0 139 138"
 xmlns:xlink="http://www.w3.org/1999/xlink">
 <defs>
  <style type="text/css">
   <![CDATA[
    .fil0 {fill:#00A859}
   ]]>
  </style>
 </defs>
 <g id="Layer_x0020_1">
  <metadata id="CorelCorpID_0Corel-Layer"/>
  <path class="fil0" d="M43 55c0,3 2,5 4,6l30 31c8,7 9,4 17,-5 6,-5 0,-9 -7,-15l-25 -25c-3,-3 -6,-7 -10,-2l-7 6c-1,1 -2,2 -2,4zm19 40c-5,0 -5,1 -9,5 -3,3 -5,4 -5,8 0,2 2,4 4,5l9 10c7,6 8,7 16,11 7,4 17,5 25,3 4,-1 8,-2 12,-4 8,-4 12,-7 17,-14 7,-9 10,-22 7,-34 0,-1 0,-2 -1,-4 0,-1 0,-2 -1,-3 -4,-11 -13,-19 -21,-27 -3,-3 -3,-4 -7,-4 -2,0 -5,3 -7,5 -1,1 -4,4 -5,6 -1,3 1,5 3,7 5,5 13,13 16,18 3,6 3,12 1,19 -1,2 -3,5 -4,7 -9,9 -23,10 -33,2 -3,-2 -15,-16 -17,-16zm-62 -53c0,11 1,17 7,26l1 3c5,6 11,11 16,17 3,2 3,3 7,3 2,0 5,-3 6,-4 3,-3 8,-6 5,-11l-12 -13c-7,-8 -10,-16 -6,-27 1,-5 6,-9 10,-12 8,-4 19,-3 26,3 3,2 15,16 18,16 4,0 4,-1 8,-5 3,-3 5,-4 5,-8 0,-3 -2,-4 -3,-6l-14 -13c-6,-5 -6,-4 -12,-7 -7,-4 -16,-5 -25,-3 -6,1 -13,4 -18,7 -2,2 -4,3 -6,5 -7,7 -13,19 -13,29z"/>
 </g>
</svg>
