<?xml version="1.0" standalone="no"?><!-- Generator: Gravit.io --><svg xmlns="http://www.w3.org/2000/svg" xmlns:xlink="http://www.w3.org/1999/xlink" style="isolation:isolate" viewBox="675 376 16 16" width="16" height="16"><g id="Group"><path d=" M 691 377 C 691 376.4 690.6 376 690 376 L 676 376 C 675.4 376 675 376.4 675 377 L 675 388 C 675 388.6 675.4 389 676 389 L 679.6 389 L 682.3 391.7 C 682.5 391.9 682.7 392 683 392 C 683.3 392 683.5 391.9 683.7 391.7 L 686.4 389 L 690 389 C 690.6 389 691 388.6 691 388 L 691 377 Z  M 677 378 L 689 378 L 689 387 L 685.572 387 L 683 389.572 L 680.428 387 L 677 387 L 677 378 Z " fill-rule="evenodd" fill="rgb(85,165,255)"/><rect x="679" y="380" width="8" height="2" transform="matrix(1,0,0,1,0,0)" fill="rgb(85,165,255)"/><rect x="679" y="383" width="4" height="2" transform="matrix(1,0,0,1,0,0)" fill="rgb(85,165,255)"/></g></svg>