<?xml version="1.0" encoding="UTF-8"?>
<svg width="53px" height="36px" viewBox="0 0 53 36" version="1.1" xmlns="http://www.w3.org/2000/svg" xmlns:xlink="http://www.w3.org/1999/xlink">
    <!-- Generator: Sketch 50.2 (55047) - http://www.bohemiancoding.com/sketch -->
    <title>logo - topcoder mono black</title>
    <desc>Created with Sketch.</desc>
    <defs></defs>
    <g id="Connect-email-templates" stroke="none" stroke-width="1" fill="none" fill-rule="evenodd">
        <g id="email-notification---digest-mobile" transform="translate(-15.000000, -15.000000)" fill="#151516">
            <g id="logo---topcoder-mono-black" transform="translate(15.000000, 15.000000)">
                <path d="M7.94740164,14.577922 C7.35908875,15.9265349 6.80601338,17.2865637 6.30318602,18.593665 C6.08841829,19.1519543 5.91286703,19.6215603 5.78167233,19.9806 C5.10857175,19.844113 4.50161605,19.4563029 3.96062037,18.7595783 C0.883722062,14.7964697 -0.540911288,11.1875291 0.187188952,8.97531424 C1.1067473,6.18088362 5.59858335,5.47375271 12.205163,6.69652909 C10.8624403,8.45979274 9.42236581,11.1968033 7.94740164,14.577922 Z M24.7564221,10.6040598 L24.8372746,10.6403869 C23.5089322,10.9501247 22.2060434,11.3955617 20.8666628,11.9875424 C18.0676529,13.2246515 17.5469019,13.5498795 9.45309375,18.8746176 C8.9972007,19.1745396 8.6349974,19.3855038 8.15403049,19.596605 C7.72771664,19.7837184 7.30978696,19.9163943 6.90741294,19.9845898 C7.09366566,19.4833057 7.30469086,18.9298012 7.53753784,18.3365499 C8.24833273,16.5255752 9.01585096,14.7148821 9.81080291,13.0269527 C10.8272122,10.8688006 11.8134779,9.07352924 12.7351882,7.76814682 C12.9572748,7.45361423 13.1741242,7.16982976 13.3850647,6.91823276 C15.9999986,7.36019163 21.4032575,9.1029812 24.7564221,10.6040598 Z M45.055508,14.577922 C43.5805438,11.1968033 42.1404693,8.45979274 40.7977466,6.69652909 C47.4043263,5.47375271 51.8961623,6.18088362 52.8157207,8.97531424 C53.5438209,11.1875291 52.1191876,14.7964697 49.0422892,18.7595783 C48.5012936,19.4563029 47.8943379,19.844113 47.2212373,19.9806 C47.0900426,19.6215603 46.9144913,19.1519543 46.6997236,18.593665 C46.1968962,17.2865637 45.6438209,15.9265349 45.055508,14.577922 Z M28.2464875,10.6040598 C31.5996521,9.1029812 37.002911,7.36019163 39.6178449,6.91823276 C39.8287854,7.16982976 40.0456348,7.45361423 40.2677214,7.76814682 C41.1894317,9.07352924 42.1756974,10.8688006 43.1921067,13.0269527 C43.9870586,14.7148821 44.7545769,16.5255752 45.4653718,18.3365499 C45.6982188,18.9298012 45.909244,19.4833057 46.0954967,19.9845898 C45.6931227,19.9163943 45.275193,19.7837184 44.8488791,19.596605 C44.3679122,19.3855038 44.0057089,19.1745396 43.5498159,18.8746176 C35.4560078,13.5498795 34.9352568,13.2246515 32.1362468,11.9875424 C30.7968663,11.3955617 29.4939775,10.9501247 28.165635,10.6403869 L28.2464875,10.6040598 Z M26.5124678,10.2730168 L26.5,10.2799988 C26.0407948,10.082073 25.6811591,9.91416763 25.3581783,9.76413774 C22.1254329,8.26410953 18.0304543,6.87939068 14.175039,6.01428084 C17.8083136,1.97220289 21.9322648,0 26.5,0 L26.5029648,0.0592956766 L26.5029096,0 C31.0802096,0 35.194596,1.97220289 38.8278706,6.01428084 C34.9724553,6.87939068 30.8774767,8.26410953 27.6447313,9.76413774 C27.3217505,9.91416763 26.9621148,10.0779367 26.5124745,10.2801647 L26.5124678,10.2730168 Z" id="Combined-Shape"></path>
                <path d="M2.31669939,26.4326172 L2.31669939,27.7167969 L3.24931657,27.7167969 L3.24931657,28.5957031 L2.31669939,28.5957031 L2.31669939,31.5449219 C2.31669939,31.7467458 2.35657529,31.8924149 2.43632829,31.9819336 C2.51608129,32.0714523 2.65849524,32.1162109 2.86357439,32.1162109 C3.00029382,32.1162109 3.13863879,32.0999351 3.27861345,32.0673828 L3.27861345,32.9853516 C3.00842981,33.0602217 2.74801574,33.0976562 2.49736345,33.0976562 C1.58590056,33.0976562 1.13017595,32.5947316 1.13017595,31.5888672 L1.13017595,28.5957031 L0.261035323,28.5957031 L0.261035323,27.7167969 L1.13017595,27.7167969 L1.13017595,26.4326172 L2.31669939,26.4326172 Z M5.5864259,30.3095703 C5.5864259,29.7919896 5.68896394,29.3256857 5.89404309,28.9106445 C6.09912224,28.4956034 6.38720529,28.1765962 6.7583009,27.9536133 C7.12939651,27.7306304 7.55582453,27.6191406 8.03759778,27.6191406 C8.75049196,27.6191406 9.32909946,27.8486305 9.77343762,28.3076172 C10.2177758,28.7666039 10.457845,29.3753217 10.4936525,30.1337891 L10.4985353,30.4121094 C10.4985353,30.9329453 10.3984386,31.3984354 10.1982423,31.8085938 C9.99804599,32.2187521 9.71159052,32.5361317 9.33886731,32.7607422 C8.96614409,32.9853527 8.53564709,33.0976562 8.0473634,33.0976562 C7.30191696,33.0976562 6.705406,32.8494491 6.25781262,32.3530273 C5.81021924,31.8566056 5.5864259,31.1949911 5.5864259,30.3681641 L5.5864259,30.3095703 Z M6.77294934,30.4121094 C6.77294934,30.9557319 6.8852529,31.3813461 7.1098634,31.6889648 C7.3344739,31.9965836 7.64697077,32.1503906 8.0473634,32.1503906 C8.44775603,32.1503906 8.75943911,31.9941422 8.98242199,31.6816406 C9.20540488,31.3691391 9.31689465,30.9117869 9.31689465,30.3095703 C9.31689465,29.7757135 9.2021497,29.3525406 8.97265637,29.0400391 C8.74316303,28.7275375 8.43147995,28.5712891 8.03759778,28.5712891 C7.65022605,28.5712891 7.34261194,28.7250961 7.11474621,29.0327148 C6.88688049,29.3403336 6.77294934,29.8001271 6.77294934,30.4121094 Z M17.928418,30.4121094 C17.928418,31.2291708 17.742873,31.8810197 17.3717774,32.3676758 C17.0006818,32.8543319 16.5026399,33.0976562 15.8776368,33.0976562 C15.2982068,33.0976562 14.8343443,32.9072285 14.4860352,32.5263672 L14.4860352,35.03125 L13.2995118,35.03125 L13.2995118,27.7167969 L14.3932618,27.7167969 L14.4420899,28.2539062 C14.7903989,27.8307271 15.264027,27.6191406 15.8629884,27.6191406 C16.5075228,27.6191406 17.0128889,27.8592098 17.3791016,28.3393555 C17.7453144,28.8195011 17.928418,29.4859983 17.928418,30.3388672 L17.928418,30.4121094 Z M16.7467774,30.3095703 C16.7467774,29.7822239 16.641798,29.3639338 16.431836,29.0546875 C16.221874,28.7454412 15.9215841,28.5908203 15.5309571,28.5908203 C15.0459286,28.5908203 14.6976248,28.7910136 14.4860352,29.1914062 L14.4860352,31.5351562 C14.7008801,31.9453146 15.052439,32.1503906 15.5407227,32.1503906 C15.9183288,32.1503906 16.213736,31.9982112 16.4269532,31.6938477 C16.6401704,31.3894842 16.7467774,30.928063 16.7467774,30.3095703 Z M22.9022461,32.1503906 C23.1984716,32.1503906 23.4442373,32.0641285 23.6395508,31.8916016 C23.8348643,31.7190747 23.9390299,31.5058606 23.9520508,31.2519531 L25.0702149,31.2519531 C25.057194,31.5807308 24.9546559,31.8875311 24.7625977,32.1723633 C24.5705394,32.4571954 24.3101254,32.6826164 23.9813477,32.8486328 C23.65257,33.0146493 23.2977558,33.0976562 22.9168946,33.0976562 C22.1779586,33.0976562 21.5920269,32.8584008 21.1590821,32.3798828 C20.7261372,31.9013648 20.509668,31.2405641 20.509668,30.3974609 L20.509668,30.2753906 C20.509668,29.4713501 20.7245096,28.8276391 21.1541992,28.3442383 C21.5838889,27.8608374 22.1698205,27.6191406 22.9120117,27.6191406 C23.5402701,27.6191406 24.0521465,27.8022443 24.4476563,28.168457 C24.8431661,28.5346698 25.0506835,29.015622 25.0702149,29.6113281 L23.9520508,29.6113281 C23.9390299,29.3085922 23.8356781,29.0595713 23.6419922,28.8642578 C23.4483063,28.6689443 23.2017268,28.5712891 22.9022461,28.5712891 C22.5181296,28.5712891 22.2219086,28.7104478 22.0135742,28.9887695 C21.8052399,29.2670912 21.6994467,29.6894503 21.6961914,30.2558594 L21.6961914,30.4462891 C21.6961914,31.0192086 21.7995433,31.4464504 22.00625,31.7280273 C22.2129568,32.0096043 22.5116192,32.1503906 22.9022461,32.1503906 Z M27.5440429,30.3095703 C27.5440429,29.7919896 27.646581,29.3256857 27.8516601,28.9106445 C28.0567393,28.4956034 28.3448223,28.1765962 28.7159179,27.9536133 C29.0870136,27.7306304 29.5134416,27.6191406 29.9952148,27.6191406 C30.708109,27.6191406 31.2867165,27.8486305 31.7310547,28.3076172 C32.1753928,28.7666039 32.415462,29.3753217 32.4512695,30.1337891 L32.4561523,30.4121094 C32.4561523,30.9329453 32.3560557,31.3984354 32.1558594,31.8085938 C31.955663,32.2187521 31.6692076,32.5361317 31.2964844,32.7607422 C30.9237611,32.9853527 30.4932641,33.0976562 30.0049804,33.0976562 C29.259534,33.0976562 28.663023,32.8494491 28.2154297,32.3530273 C27.7678363,31.8566056 27.5440429,31.1949911 27.5440429,30.3681641 L27.5440429,30.3095703 Z M28.7305664,30.4121094 C28.7305664,30.9557319 28.8428699,31.3813461 29.0674804,31.6889648 C29.2920909,31.9965836 29.6045878,32.1503906 30.0049804,32.1503906 C30.4053731,32.1503906 30.7170562,31.9941422 30.940039,31.6816406 C31.1630219,31.3691391 31.2745117,30.9117869 31.2745117,30.3095703 C31.2745117,29.7757135 31.1597667,29.3525406 30.9302734,29.0400391 C30.7007801,28.7275375 30.389097,28.5712891 29.9952148,28.5712891 C29.6078431,28.5712891 29.300229,28.7250961 29.0723633,29.0327148 C28.8444975,29.3403336 28.7305664,29.8001271 28.7305664,30.4121094 Z M35.0374023,30.3193359 C35.0374023,29.5055298 35.2262025,28.8520532 35.6038085,28.3588867 C35.9814146,27.8657202 36.4875944,27.6191406 37.1223632,27.6191406 C37.6822618,27.6191406 38.1347313,27.8144512 38.4797851,28.2050781 L38.4797851,25.5 L39.6663085,25.5 L39.6663085,33 L38.5920898,33 L38.533496,32.453125 C38.1786765,32.8828146 37.7050485,33.0976562 37.1125976,33.0976562 C36.4941049,33.0976562 35.9936216,32.8486353 35.6111327,32.3505859 C35.2286438,31.8525366 35.0374023,31.17546 35.0374023,30.3193359 Z M36.2239257,30.421875 C36.2239257,30.9589871 36.3272775,31.3780909 36.5339843,31.6791992 C36.7406911,31.9803075 37.0344707,32.1308594 37.415332,32.1308594 C37.9003604,32.1308594 38.2551746,31.9143902 38.4797851,31.4814453 L38.4797851,29.2255859 C38.261685,28.8024067 37.9101261,28.5908203 37.4250976,28.5908203 C37.0409811,28.5908203 36.7447601,28.7429998 36.5364257,29.0473633 C36.3280913,29.3517268 36.2239257,29.8098928 36.2239257,30.421875 Z M45.0307616,33.0976562 C44.2788047,33.0976562 43.669273,32.8608422 43.2021483,32.387207 C42.7350236,31.9135719 42.5014647,31.2828815 42.5014647,30.4951172 L42.5014647,30.3486328 C42.5014647,29.8212864 42.603189,29.3500997 42.8066405,28.9350586 C43.010092,28.5200175 43.2957337,28.1969413 43.6635741,27.9658203 C44.0314145,27.7346994 44.4415666,27.6191406 44.8940428,27.6191406 C45.6134475,27.6191406 46.1692688,27.8486305 46.5615233,28.3076172 C46.9537779,28.7666039 47.1499022,29.4160114 47.1499022,30.2558594 L47.1499022,30.734375 L43.6977538,30.734375 C43.7335613,31.1705751 43.8792304,31.5156237 44.1347655,31.7695312 C44.3903006,32.0234388 44.7117492,32.1503906 45.099121,32.1503906 C45.6427435,32.1503906 46.0854474,31.9306663 46.427246,31.4912109 L47.0668944,32.1015625 C46.8553048,32.4173193 46.5729183,32.6622713 46.2197264,32.8364258 C45.8665346,33.0105803 45.4702169,33.0976562 45.0307616,33.0976562 Z M44.88916,28.5712891 C44.5636376,28.5712891 44.3007821,28.6852202 44.1005858,28.9130859 C43.9003895,29.1409517 43.7726239,29.4583313 43.717285,29.8652344 L45.9780272,29.8652344 L45.9780272,29.7773438 C45.9519854,29.3802063 45.8461922,29.0799164 45.6606444,28.8764648 C45.4750966,28.6730133 45.2179377,28.5712891 44.88916,28.5712891 Z M52.6364256,28.8007812 C52.4801748,28.7747395 52.3190436,28.7617188 52.1530272,28.7617188 C51.6094047,28.7617188 51.2431974,28.97005 51.0543944,29.3867188 L51.0543944,33 L49.8678709,33 L49.8678709,27.7167969 L51.0006834,27.7167969 L51.0299803,28.3076172 C51.3164401,27.8486305 51.7135715,27.6191406 52.2213866,27.6191406 C52.3906582,27.6191406 52.5306308,27.6419269 52.6413084,27.6875 L52.6364256,28.8007812 Z" id="topcoder"></path>
            </g>
        </g>
    </g>
</svg>