<?xml version="1.0" encoding="UTF-8"?>
<!DOCTYPE svg PUBLIC "-//W3C//DTD SVG 1.0//EN" "http://www.w3.org/TR/2001/REC-SVG-20010904/DTD/svg10.dtd">
<!-- Creator: CorelDRAW X8 -->
<svg xmlns="http://www.w3.org/2000/svg" xml:space="preserve" width="100%" height="100%" version="1.0" style="shape-rendering:geometricPrecision; text-rendering:geometricPrecision; image-rendering:optimizeQuality; fill-rule:evenodd; clip-rule:evenodd"
viewBox="0 0 146 215"
 xmlns:xlink="http://www.w3.org/1999/xlink">
 <defs>
  <style type="text/css">
   <![CDATA[
    .fil0 {fill:#00A859}
   ]]>
  </style>
 </defs>
 <g id="Layer_x0020_1">
  <metadata id="CorelCorpID_0Corel-Layer"/>
  <path class="fil0" d="M102 214c6,-5 8,-12 12,-22 5,-11 7,-11 3,-23 -6,-14 -11,-35 -18,-47 -45,3 -6,49 3,92zm-59 1l33 -88c-14,-1 -20,-4 -29,-5 -6,12 -12,33 -17,47 -5,12 -3,12 2,23 4,8 6,17 11,23zm-7 -81l6 -16c-11,-13 -31,-28 -20,-62 22,-67 125,-33 102,35 -3,7 -9,16 -14,21l-6 6 6 16c6,-4 7,-10 14,-15 10,-7 13,-3 14,-17 1,-20 3,-11 7,-24 4,-10 -4,-14 -6,-22 -3,-11 3,-17 -6,-24 -10,-6 -10,-2 -16,-14 -7,-12 -7,-9 -22,-10 -10,-1 -14,-8 -21,-8 -8,0 -13,7 -21,8 -15,2 -16,-4 -23,9 -6,11 -5,8 -15,15 -11,6 -5,10 -8,23 -1,8 -9,12 -7,22 3,11 7,5 8,24 1,20 8,8 20,24l8 9zm29 -108c-65,12 -45,106 17,94 24,-4 44,-27 38,-56 -4,-23 -27,-43 -55,-38z"/>
 </g>
</svg>
