<svg width="20" height="20" fill="none" xmlns="http://www.w3.org/2000/svg"><path d="M9.499 2C4.806 2 1 5.672 1 10.203c0 3.623 2.435 6.697 5.814 7.783.425.075.58-.178.58-.396 0-.195-.007-.71-.012-1.395-2.364.496-2.863-1.1-2.863-1.1-.386-.947-.944-1.2-.944-1.2-.772-.508.058-.498.058-.498.853.059 1.301.846 1.301.846.76 1.253 1.99.891 2.475.681.077-.53.296-.891.54-1.097-1.887-.207-3.872-.91-3.872-4.053 0-.896.332-1.628.875-2.202-.088-.207-.379-1.042.083-2.17 0 0 .714-.22 2.338.84A8.418 8.418 0 0 1 9.5 5.967c.722.004 1.45.094 2.128.276 1.623-1.06 2.336-.84 2.336-.84.463 1.13.172 1.963.085 2.17.545.574.873 1.306.873 2.202 0 3.15-1.987 3.844-3.88 4.047.305.253.577.754.577 1.519 0 1.097-.01 1.981-.01 2.25 0 .22.152.474.583.394C15.567 16.898 18 13.825 18 10.203 18 5.673 14.194 2 9.499 2z" fill="#6612C5"/></svg>