<svg width="20" height="20" fill="none" xmlns="http://www.w3.org/2000/svg"><path d="M6.259 7.498h-2.81a.226.226 0 0 0-.226.227v9.049c0 .125.1.226.225.226h2.81a.226.226 0 0 0 .227-.226v-9.05a.226.226 0 0 0-.226-.226zM4.855 3a1.858 1.858 0 0 0 0 3.714 1.857 1.857 0 0 0 0-3.714zM13.408 7.274c-1.13 0-1.964.486-2.47 1.038v-.587a.226.226 0 0 0-.226-.227H8.021a.226.226 0 0 0-.226.227v9.049c0 .125.101.226.226.226h2.804a.226.226 0 0 0 .226-.226v-4.478c0-1.508.409-2.096 1.458-2.096 1.143 0 1.234.942 1.234 2.174v4.4c0 .125.101.226.226.226h2.805a.226.226 0 0 0 .226-.226V11.81c0-2.243-.427-4.536-3.592-4.536z" fill="#6612C5"/></svg>